<?xml version="1.0" encoding="utf-8"?>
<!-- Generator: Adobe Illustrator 26.5.0, SVG Export Plug-In . SVG Version: 6.00 Build 0)  -->
<!DOCTYPE svg PUBLIC "-//W3C//DTD SVG 1.1//EN" "http://www.w3.org/Graphics/SVG/1.1/DTD/svg11.dtd" [
	<!ENTITY ns_extend "http://ns.adobe.com/Extensibility/1.0/">
	<!ENTITY ns_ai "http://ns.adobe.com/AdobeIllustrator/10.0/">
	<!ENTITY ns_graphs "http://ns.adobe.com/Graphs/1.0/">
	<!ENTITY ns_vars "http://ns.adobe.com/Variables/1.0/">
	<!ENTITY ns_imrep "http://ns.adobe.com/ImageReplacement/1.0/">
	<!ENTITY ns_sfw "http://ns.adobe.com/SaveForWeb/1.0/">
	<!ENTITY ns_custom "http://ns.adobe.com/GenericCustomNamespace/1.0/">
	<!ENTITY ns_adobe_xpath "http://ns.adobe.com/XPath/1.0/">
]>
<svg version="1.1" xmlns:x="&ns_extend;" xmlns:i="&ns_ai;" xmlns:graph="&ns_graphs;"
	 xmlns="http://www.w3.org/2000/svg" xmlns:xlink="http://www.w3.org/1999/xlink" x="0px" y="0px" viewBox="0 0 249.9 42.4"
	 style="enable-background:new 0 0 249.9 42.4;" xml:space="preserve">
<style type="text/css">
	.st0{fill:#FFFFFF;}
	.st1{fill:#63D1EA;}
</style>
<metadata>
	<sfw  xmlns="&ns_sfw;">
		<slices></slices>
		<sliceSourceBounds  bottomLeftOrigin="true" height="152.3" width="16383" x="-7508" y="-403.3"></sliceSourceBounds>
	</sfw>
</metadata>
<g id="Ebene_2">
</g>
<g id="Ebene_1">
	<g>
		<path class="st0" d="M47,28.1c0-8.3,6.4-14.3,15.5-14.3c5.8,0,10.4,2.5,12.4,7.1l-6.2,3.3c-1.5-2.6-3.7-3.8-6.2-3.8
			c-4.1,0-7.3,2.8-7.3,7.7s3.2,7.7,7.3,7.7c2.5,0,4.7-1.1,6.2-3.8l6.2,3.4c-2,4.4-6.6,7-12.4,7C53.5,42.4,47,36.5,47,28.1z"/>
		<path class="st0" d="M75.9,14.9h4.3V8.1h8v6.7h6.9v6.2h-6.9v11.3c0,2.4,1.3,3.7,3.5,3.7c1.2,0,2.4-0.4,3.2-1l2.2,5.7
			c-1.6,1.2-4.1,1.8-6.5,1.8c-6.5,0-10.4-3.3-10.4-9.9V21.1"/>
		<path class="st0" d="M128.8,14.3V42h-7.6v-3.3c-2.1,2.4-5.2,3.7-8.6,3.7c-7,0-11.9-3.9-11.9-12.5V14.3h8v14.5
			c0,4.6,2.1,6.7,5.6,6.7c3.7,0,6.4-2.4,6.4-7.5V14.3H128.8z"/>
		<path class="st0" d="M160,26.2V42h-7.5v-3.5c-1.5,2.5-4.4,3.9-8.4,3.9c-6.5,0-10.4-3.6-10.4-8.4c0-4.9,3.5-8.3,11.9-8.3h6.4
			c0-3.5-2.1-5.5-6.4-5.5c-2.9,0-6,1-8,2.6l-2.9-5.6c3-2.2,7.5-3.3,12-3.3C155.1,13.9,160,17.8,160,26.2z M151.9,33.2v-2.8h-5.5
			c-3.8,0-4.9,1.4-4.9,3.2c0,2,1.7,3.3,4.5,3.3C148.7,37,151,35.8,151.9,33.2z"/>
		<rect x="166.5" y="3.8" class="st0" width="8" height="38.2"/>
		<rect x="181.2" y="14.3" class="st0" width="8" height="27.7"/>
		<rect x="181.2" y="3.8" class="st0" width="8" height="6.7"/>
		<polygon class="st0" points="218.8,35.8 218.8,42 194,42 194,37.1 208.1,20.5 194.4,20.5 194.4,14.3 218.3,14.3 218.3,19.1 
			204.2,35.8 		"/>
		<path class="st0" d="M249.8,30.4h-21c0.8,3.5,3.7,5.6,7.9,5.6c2.9,0,5-0.9,7-2.7l4.3,4.6c-2.6,2.9-6.4,4.5-11.4,4.5
			c-9.6,0-15.8-6-15.8-14.3c0-8.3,6.3-14.3,14.8-14.3c8.1,0,14.4,5.5,14.4,14.4C249.9,28.8,249.8,29.7,249.8,30.4z M228.7,25.7h13.7
			c-0.6-3.5-3.2-5.8-6.8-5.8C231.9,19.9,229.3,22.2,228.7,25.7z"/>
		<polygon class="st0" points="0,42 18.7,0.1 28.2,0.1 46.9,42 35.6,42 22.2,9.6 9.9,42 		"/>
		<polygon class="st1" points="0,42 11.2,42 28.6,0 18.8,0 		"/>
	</g>
</g>
</svg>
